<svg width="38" height="28" viewBox="0 0 38 28" fill="none" xmlns="http://www.w3.org/2000/svg">
<path d="M34.9534 5.9916L31.1053 7.39453C27.884 1.34442 20.6543 -1.56372 14.0368 0.847554C7.41931 3.25883 3.76073 10.1565 5.16002 16.8643L1.31196 18.2672C0.277061 18.6471 -0.247676 19.787 0.116724 20.8246C0.481125 21.8622 1.63263 22.3883 2.66753 22.0229L6.51559 20.62C9.73689 26.6701 16.9666 29.5782 23.5841 27.167C30.187 24.7557 33.8602 17.858 32.4609 11.1503L36.309 9.74734C37.3439 9.36739 37.8686 8.22751 37.5042 7.18993C37.1398 6.15236 35.9883 5.62626 34.9534 5.9916ZM22.214 23.3674C17.054 25.2526 11.3403 22.5782 9.45995 17.405C7.57964 12.2317 10.2471 6.50309 15.407 4.61791C19.9255 2.96655 24.8668 4.80789 27.2864 8.76822L21.7621 10.7849C20.7272 11.1649 20.2025 12.3048 20.5669 13.3423C20.9458 14.3799 22.0828 14.906 23.1177 14.5407L28.642 12.524C29.327 17.1127 26.7325 21.716 22.1994 23.3674H22.214Z" fill="white"/>
</svg>
