<svg width="60" height="55" viewBox="0 0 60 55" fill="none" xmlns="http://www.w3.org/2000/svg">
<rect width="60" height="55" fill="#F5F5F5"/>
<rect width="1920" height="6208" transform="translate(-1127 -4052)" fill="black"/>
<rect x="-135.5" y="-640.5" width="777" height="813" rx="18.5" fill="#141414" stroke="url(#paint0_linear_0_1)" stroke-width="3"/>
<g filter="url(#filter0_f_0_1)">
<rect x="-37" y="-57.0001" width="134" height="134" rx="21" fill="url(#paint1_linear_0_1)" fill-opacity="0.5"/>
</g>
<g filter="url(#filter1_d_0_1)">
<rect x="-37" y="-56.0001" width="134" height="134" rx="19" fill="url(#paint2_linear_0_1)"/>
</g>
<g opacity="0.7" clip-path="url(#clip0_0_1)">
<path d="M0 50.0948C0 51.0749 0.794457 51.8644 1.78076 51.8644H12.129V48.3251H1.78301C0.796714 48.3251 0 49.1146 0 50.0948Z" fill="white"/>
<path d="M57.3702 48.3251H20.4437V51.8644H57.3702C58.3565 51.8644 59.1509 51.0749 59.1509 50.0948C59.1509 49.1146 58.3565 48.3251 57.3702 48.3251Z" fill="white"/>
<path d="M16.2886 45.1896C15.3046 45.1896 14.5079 45.9813 14.5079 46.9592V53.2281C14.5079 54.206 15.3046 54.9977 16.2886 54.9977C17.2727 54.9977 18.0694 54.206 18.0694 53.2281V46.9592C18.0694 45.9813 17.2727 45.1896 16.2886 45.1896Z" fill="white"/>
<path d="M55.7429 -6.10352e-05H3.4103C1.53023 -6.10352e-05 0 1.52061 0 3.38894V39.6945C0 41.5628 1.53023 43.0835 3.4103 43.0835H55.7429C57.623 43.0835 59.1532 41.5628 59.1532 39.6945V3.38894C59.1532 1.52061 57.623 -6.10352e-05 55.7429 -6.10352e-05ZM29.5755 35.1011C22.0507 35.1011 15.932 29.0184 15.932 21.5406C15.932 14.0628 22.053 7.98012 29.5755 7.98012C37.098 7.98012 43.2189 14.0628 43.2189 21.5406C43.2189 29.0184 37.098 35.1011 29.5755 35.1011Z" fill="white"/>
<path d="M35.5542 20.0132L27.5826 15.357C26.3931 14.6617 24.8922 15.514 24.8922 16.8866V26.1991C24.8922 27.5695 26.3909 28.4218 27.5826 27.7287L35.5542 23.0725C36.7278 22.3862 36.7278 20.6995 35.5542 20.0132Z" fill="white"/>
</g>
<defs>
<filter id="filter0_f_0_1" x="-67" y="-87.0001" width="194" height="194" filterUnits="userSpaceOnUse" color-interpolation-filters="sRGB">
<feFlood flood-opacity="0" result="BackgroundImageFix"/>
<feBlend mode="normal" in="SourceGraphic" in2="BackgroundImageFix" result="shape"/>
<feGaussianBlur stdDeviation="15" result="effect1_foregroundBlur_0_1"/>
</filter>
<filter id="filter1_d_0_1" x="-41" y="-56.0001" width="142" height="142" filterUnits="userSpaceOnUse" color-interpolation-filters="sRGB">
<feFlood flood-opacity="0" result="BackgroundImageFix"/>
<feColorMatrix in="SourceAlpha" type="matrix" values="0 0 0 0 0 0 0 0 0 0 0 0 0 0 0 0 0 0 127 0" result="hardAlpha"/>
<feOffset dy="4"/>
<feGaussianBlur stdDeviation="2"/>
<feComposite in2="hardAlpha" operator="out"/>
<feColorMatrix type="matrix" values="0 0 0 0 0 0 0 0 0 0 0 0 0 0 0 0 0 0 0.25 0"/>
<feBlend mode="normal" in2="BackgroundImageFix" result="effect1_dropShadow_0_1"/>
<feBlend mode="normal" in="SourceGraphic" in2="effect1_dropShadow_0_1" result="shape"/>
</filter>
<linearGradient id="paint0_linear_0_1" x1="-137" y1="-642" x2="678.17" y2="137.207" gradientUnits="userSpaceOnUse">
<stop stop-color="#FF4E83"/>
<stop offset="1" stop-color="#FFBB54"/>
</linearGradient>
<linearGradient id="paint1_linear_0_1" x1="-37" y1="-57.0001" x2="97" y2="76.9999" gradientUnits="userSpaceOnUse">
<stop stop-color="#FF4E83"/>
<stop offset="1" stop-color="#FFBB54"/>
</linearGradient>
<linearGradient id="paint2_linear_0_1" x1="-37" y1="-56.0001" x2="97" y2="77.9999" gradientUnits="userSpaceOnUse">
<stop stop-color="#FF4E83"/>
<stop offset="1" stop-color="#FFBB54"/>
</linearGradient>
<clipPath id="clip0_0_1">
<rect width="59.1509" height="55" fill="white"/>
</clipPath>
</defs>
</svg>
